# xmcd
#
# Track frame offsets:
#	150
#	17430
#	34872
#	50370
#	67150
#	82307
#	100980
#	115067
#	128932
#	143085
#	157607
#	172860
#	187777
#	204587
#	220860
#	236875
#
# Disc length: 3400 seconds
#
# Revision: 2
# Processed by: cddbd v1.5.2PL0 Copyright (c) Steve Scherf et al.
# Submitted via: audiograbber 1.83.01
#
DISCID=d70d4610
DTITLE=MS® - Las Mas Buscadas 2
DYEAR=2000
DGENRE=Oldies
TTITLE0=Yellowstone And Voice - Philosopher
TTITLE1=Neil Sedaka - Bad And Beautiful
TTITLE2=Beverly Bremers - Don't Say You Don't Remember
TTITLE3=David Soul - Silver Lady
TTITLE4=Sweet Sensation - Sad Sweet Dreamer
TTITLE5=Dollar - Who Were You With In The Moonlight
TTITLE6=Harris Chalkitis - Ridin' Free Livin' Lonely
TTITLE7=Shocking Blue - Never Marry A Railroad Man
TTITLE8=Jamestown Masacre - Summer Sun
TTITLE9=Tremeloes - Me And My Life
TTITLE10=Firefly - Hey There Little Firefly
TTITLE11=Silver Convention - Fly Robin Fly
TTITLE12=Disco Tex And The Sex-O-Lettes - I Wanna Dance With Choo
TTITLE13=Imagination - Music and Lights
TTITLE14=Walter Murphy - California Strut
TTITLE15=Albatros - Private Collection
EXTD=
EXTT0=
EXTT1=
EXTT2=
EXTT3=
EXTT4=
EXTT5=
EXTT6=
EXTT7=
EXTT8=
EXTT9=
EXTT10=
EXTT11=
EXTT12=
EXTT13=
EXTT14=
EXTT15=
PLAYORDER=
